<svg xmlns="http://www.w3.org/2000/svg" viewBox="0 0 72 66" fill="none">
  <path d="M40.28,6.17a5,5,0,0,0-8.56,0L23.09,21.09,27.36,23.3a35.39,35.39,0,0,1,18.56,28.94H40.78A30.55,30.55,0,0,0,24.93,27.59L20.71,35a22.69,22.69,0,0,1,10.66,17.28H7.31A1,1,0,0,1,6.45,50.8L11.33,42.35a14.51,14.51,0,0,1,4.75,4.64.17.17,0,0,0,.24,0c1.32-1.11,2.63-2.29,3.77-3.18a.18.18,0,0,0,0-.26A20.35,20.35,0,0,0,13.52,38a1,1,0,0,0-1.33.37L5.16,50.58a5,5,0,0,0,.53,5.63,5,5,0,0,0,3.76,1.81H31.71V52.24H49.68A39.6,39.6,0,0,0,31.83,20.72L35.86,13.72,61.43,58.12a1,1,0,0,1-.87,1.49H50.41c0,1.63,0,3.5,0,5.14H60.56A5,5,0,0,0,64.79,66,5,5,0,0,0,65,61.08Z" fill="#362D59"></path>
</svg>